<svg xmlns="http://www.w3.org/2000/svg" width="402" height="403" viewBox="0 0 402 403" fill="#5c5962">
  <path d="M392.857,219.354 L374.583,219.354 C371.914,219.354 369.724,220.209 368.02,221.927 C366.302,223.635 365.447,225.824 365.447,228.49 L365.447,319.851 C365.447,332.414 360.977,343.166 352.032,352.113 C343.087,361.058 332.331,365.527 319.768,365.527 L82.224,365.527 C69.662,365.527 58.907,361.058 49.96,352.113 C41.015,343.167 36.543,332.415 36.543,319.851 L36.543,82.31 C36.543,69.748 41.014,58.997 49.96,50.051 C58.907,41.104 69.662,36.633 82.224,36.633 L193.218,36.633 C195.887,36.633 198.077,35.774 199.788,34.063 C201.499,32.35 202.354,30.163 202.354,27.496 L202.354,9.221 C202.354,6.559 201.499,4.368 199.788,2.658 C198.077,0.945 195.887,0.09 193.218,0.09 L82.224,0.09 C59.576,0.09 40.208,8.132 24.122,24.215 C8.042,40.297 0,59.665 0,82.313 L0,319.855 C0,342.502 8.042,361.873 24.123,377.95 C40.209,394.034 59.577,402.08 82.225,402.08 L319.768,402.08 C342.415,402.08 361.785,394.034 377.869,377.95 C393.954,361.873 401.996,342.503 401.996,319.855 L401.996,228.497 C401.996,225.828 401.14,223.638 399.422,221.927 C397.709,220.209 395.519,219.354 392.857,219.354 Z"/>
  <path d="M397.603454,4.39343142 C394.673773,1.46366714 391.200599,0 387.195271,0 L268.794693,0 C264.786935,0 261.316191,1.46366714 258.38894,4.39343142 C255.459259,7.3215757 253.992394,10.7907989 253.992394,14.7994811 C253.992394,18.8081633 255.459259,22.2781965 258.38894,25.2079608 L299.087772,65.9087613 L148.31329,216.690777 C146.769477,218.232204 146,220.0061 146,222.006796 C146,224.014782 146.771907,225.787869 148.31329,227.329296 L174.676367,253.689885 C176.21775,255.231312 177.991597,256 179.995476,256 C181.999355,256 183.774011,255.232121 185.314584,253.689885 L336.089876,102.910299 L376.791947,143.6111 C379.719198,146.540864 383.189132,148.006151 387.1977,148.006151 C391.206268,148.006151 394.676203,146.540864 397.606694,143.6111 C400.536375,140.682145 402,137.213732 402,133.20505 L402,14.7994811 C402,10.7883689 400.530705,7.3215757 397.603454,4.39343142 Z"/>
</svg>
