<svg xmlns="http://www.w3.org/2000/svg" width="996" height="325" viewBox="0 0 996 325">
  <path fill="#2D2E82" d="M61.5 250.551463C66.5 266.021463 80.5 273.091463 99 271.091463 118 269.091463 130.5 260.271463 130.5 245.771463 130.5 235.771463 123.5 231.501463 108 229.141463L63 223.891463C29 219.481463 5 204.521463 5 167.021463 5 123.521463 44 90.3914634 94 85.0914634 150.5 79.0914634 181.5 102.851463 189 144.091463L130 150.331463C126 138.251463 115.5 129.861463 95 132.031463 80 133.591463 65.5 142.091463 65.5 156.091463 65.5 165.091463 71.5 169.461463 85.5 171.481463L131.5 177.121463C170.5 182.501463 191 201.831463 191 235.831463 191 281.331463 151.5 312.511463 99.5 318.001463 45 323.791463 6.5 301.861463 0 257.091463L61.5 250.551463zM837.73 317.531463L775.73 324.081463 775.73 18.0914634 837.73 11.5414634 837.73 30.0414634C847.73 17.0414634 869.73 3.1614634 893.73.631463404 958.73-6.2385366 995.73 43.8514634 995.73 106.851463 995.73 169.851463 958.73 227.261463 893.73 234.131463 869.73 236.661463 847.73 227.491463 837.73 216.541463L837.73 317.531463zM837.73 160.031463C845.23 174.741463 861.73 183.501463 879.73 181.591463 913.23 178.051463 933.23 148.941463 933.23 113.441463 933.23 77.4414634 913.23 52.5514634 879.73 56.0914634 861.23 58.0914634 845.23 70.7414634 837.73 86.5314634L837.73 160.031463zM469.82 50.4014634L469.82 179.091463C469.82 194.471463 466.72 206.271463 460.6 214.161463 454.99 221.411463 446.71 225.521463 435.31 226.731463 423.91 227.941463 415.63 225.571463 410.02 219.511463 403.9 212.911463 400.8 201.761463 400.8 186.381463L400.8 57.7014634 340.46 64.0914634 340.46 192.711463C340.46 208.091463 337.36 219.891463 331.25 227.781463 325.63 235.031463 317.36 239.141463 305.95 240.341463 294.54 241.541463 286.28 239.191463 280.66 233.121463 274.55 226.521463 271.45 215.381463 271.45 200.001463L271.45 71.3614634 211.1 77.7414634 211.1 210.741463C211.1 240.591463 220.21 264.211463 237.44 279.041463 253.99 293.281463 277.68 299.231463 305.95 296.241463 332.2 293.471463 354.45 283.891463 370.7 268.461463 386.98 280.461463 409.18 285.341463 435.31 282.581463 463.71 279.581463 487.45 268.581463 503.96 250.881463 521.1 232.451463 530.16 206.881463 530.16 177.031463L530.16 44.0314634 469.82 50.4014634zM650.38 259.891463C683.54 256.391463 706.1 245.551463 722.65 227.821463 739.88 209.341463 748.99 183.821463 748.99 153.951463L748.99 20.9514634 688.65 27.3214634 688.65 155.921463C688.65 171.301463 685.55 183.101463 679.43 190.991463 673.81 198.241463 665.93 203.581463 650.43 205.221463 634.93 206.861463 626.99 203.221463 621.37 197.131463 615.26 190.531463 612.16 179.391463 612.16 164.011463L612.16 35.3714634 551.81 41.7514634 551.81 174.751463C551.81 204.601463 560.92 228.221463 578.15 243.051463 594.65 257.331463 617.22 263.401463 650.38 259.891463z" transform="translate(0 .909)"/>
</svg>
