<?xml version="1.0" encoding="utf-8"?>
<!-- Generator: Adobe Illustrator 24.0.2, SVG Export Plug-In . SVG Version: 6.00 Build 0)  -->
<svg version="1.1" id="Layer_1" xmlns="http://www.w3.org/2000/svg" xmlns:xlink="http://www.w3.org/1999/xlink" x="0px" y="0px"
	 viewBox="0 0 996 429" style="enable-background:new 0 0 996 429;" xml:space="preserve">
<style type="text/css">
	.st0{fill:#2D2E82;}
	.st1{fill:#FE5B6A;}
	.st2{fill:#60DDCD;}
</style>
<g>
	<path class="st0" d="M61.5,355.5c5,15.5,19,22.5,37.5,20.5c19-2,31.5-10.8,31.5-25.3c0-10-7-14.3-22.5-16.6l-45-5.2
		c-34-4.4-58-19.4-58-56.9c0-43.5,39-76.6,89-81.9c56.5-6,87.5,17.8,95,59l-59,6.2c-4-12.1-14.5-20.5-35-18.3
		C80,238.5,65.5,247,65.5,261c0,9,6,13.4,20,15.4l46,5.6c39,5.4,59.5,24.7,59.5,58.7c0,45.5-39.5,76.7-91.5,82.2
		C45,428.7,6.5,406.8,0,362L61.5,355.5z M837.7,422.4l-62,6.5V123l62-6.6v18.5c10-13,32-26.9,56-29.4c65-6.9,102,43.2,102,106.2
		s-37,120.4-102,127.3c-24,2.5-46-6.6-56-17.6V422.4z M837.7,264.9c7.5,14.7,24,23.5,42,21.6c33.5-3.5,53.5-32.6,53.5-68.1
		c0-36-20-60.9-53.5-57.4c-18.5,2-34.5,14.6-42,30.4V264.9z M469.8,155.3V284c0,15.4-3.1,27.2-9.2,35.1
		c-5.6,7.2-13.9,11.4-25.3,12.6c-11.4,1.2-19.7-1.2-25.3-7.2c-6.1-6.6-9.2-17.8-9.2-33.1V162.6l-60.3,6.4v128.6
		c0,15.4-3.1,27.2-9.2,35.1c-5.6,7.2-13.9,11.4-25.3,12.6c-11.4,1.2-19.7-1.1-25.3-7.2c-6.1-6.6-9.2-17.7-9.2-33.1V176.3l-60.4,6.4
		v133c0,29.9,9.1,53.5,26.3,68.3c16.6,14.2,40.2,20.2,68.5,17.2c26.2-2.8,48.5-12.4,64.8-27.8c16.3,12,38.5,16.9,64.6,14.1
		c28.4-3,52.1-14,68.6-31.7c17.1-18.4,26.2-44,26.2-73.9v-133L469.8,155.3z M650.4,364.8c33.2-3.5,55.7-14.3,72.3-32.1
		c17.2-18.5,26.3-44,26.3-73.9v-133l-60.3,6.4v128.6c0,15.4-3.1,27.2-9.2,35.1c-5.6,7.2-13.5,12.6-29,14.2
		c-15.5,1.6-23.4-2-29.1-8.1c-6.1-6.6-9.2-17.7-9.2-33.1V140.3l-60.3,6.4v133c0,29.9,9.1,53.5,26.3,68.3
		C594.7,362.2,617.2,368.3,650.4,364.8z"/>
	<path class="st1" d="M530.6,95.1c0,17.8-15.1,32.5-33.4,32.5c-17.9-0.1-32.4-14.6-32.5-32.5c0-18.8,14.6-33.4,32.5-33.4
		c8.9,0,17.4,3.5,23.7,9.8C527.1,77.7,530.6,86.2,530.6,95.1z"/>
	<path class="st2" d="M614.9,33.4c0,17.9-15.1,32.5-33.4,32.5c-17.9-0.1-32.4-14.6-32.5-32.5C549,14.6,563.6,0,581.5,0
		c8.9,0,17.4,3.5,23.7,9.8C611.4,16,614.9,24.5,614.9,33.4L614.9,33.4z"/>
</g>
</svg>
