<svg xmlns="http://www.w3.org/2000/svg" viewBox="0 0 319.06 252.95"><title>swup-logo-w</title><path class="cls-1" d="M258.67,6.36V135c0,15.38-3.1,27.18-9.22,35.07-5.61,7.25-13.89,11.36-25.29,12.56s-19.68-1.15-25.29-7.22c-6.12-6.6-9.22-17.74-9.22-33.12V13.65L129.36,20V148.67c0,15.38-3.1,27.17-9.21,35.06-5.62,7.25-13.89,11.36-25.3,12.57s-19.67-1.16-25.29-7.22c-6.11-6.6-9.21-17.74-9.21-33.12V27.32L0,33.7v133c0,29.85,9.11,53.47,26.34,68.3,16.55,14.24,40.24,20.19,68.51,17.2,26.25-2.77,48.5-12.36,64.75-27.79,16.28,12,38.48,16.89,64.61,14.12,28.4-3,52.14-14,68.64-31.7,17.15-18.42,26.21-44,26.21-73.84V0Z"/></svg>
