<?xml version="1.0" encoding="utf-8"?>
<!-- Generator: Adobe Illustrator 24.0.2, SVG Export Plug-In . SVG Version: 6.00 Build 0)  -->
<svg version="1.1" id="Layer_1" xmlns="http://www.w3.org/2000/svg" xmlns:xlink="http://www.w3.org/1999/xlink" x="0px" y="0px"
	 viewBox="0 0 157.5 157.5" style="enable-background:new 0 0 157.5 157.5;" xml:space="preserve">
<style type="text/css">
	.st0{fill:#2D2E82;}
	.st1{fill:#FE5B6A;}
	.st2{fill:#60DDCD;}
</style>
<title>swup-logo-icon</title>
<path class="st0" d="M21,0h115.5c11.6,0,21,9.4,21,21v115.5c0,11.6-9.4,21-21,21H21c-11.6,0-21-9.4-21-21V21C0,9.4,9.4,0,21,0z"/>
<g>
	<path class="st1" d="M73.2,97.7c0,10.8-9.2,19.7-20.3,19.7c-10.9,0-19.7-8.8-19.7-19.7c0-11.4,8.9-20.3,19.7-20.3
		c11.2,0,20.3,9,20.3,20.2C73.2,97.7,73.2,97.7,73.2,97.7z"/>
	<path class="st2" d="M124.3,60.3c0,10.8-9.2,19.7-20.3,19.7c-10.9,0-19.7-8.9-19.7-19.7c0-11.4,8.9-20.3,19.7-20.3
		c11.2,0,20.3,9,20.3,20.2C124.3,60.2,124.3,60.3,124.3,60.3z"/>
</g>
</svg>
