<svg xmlns="http://www.w3.org/2000/svg" width="997" height="430" viewBox="0 0 997 430">
  <g fill="none" transform="translate(.49 .05)">
    <path fill="#FFF" d="M61.51 355.450183C66.51 370.950183 80.51 377.950183 99 375.950183 118 373.950183 130.5 365.120183 130.5 350.620183 130.5 340.620183 123.5 336.360183 108 334.000183L63 328.750183C29 324.350183 5 309.380183 5 271.880183 5 228.380183 44 195.260183 94 189.980183 150.5 183.980183 181.5 207.730183 189 248.980183L130 255.220183C126 243.140183 115.5 234.750183 95 236.910183 80 238.500183 65.5 247.030183 65.5 261.030183 65.5 270.030183 71.5 274.400183 85.5 276.420183L131.5 282.060183C170.5 287.440183 191 306.770183 191 340.770183 191 386.270183 151.5 417.440183 99.5 422.940183 45 428.700183 6.5 406.760183 0 361.940183L61.51 355.450183zM837.73 422.440183L775.73 428.990183 775.73 122.950183 837.73 116.400183 837.73 134.950183C847.73 121.890183 869.73 108.070183 893.73 105.530183 958.73 98.6601825 995.73 148.760183 995.73 211.760183 995.73 274.760183 958.73 332.160183 893.73 339.030183 869.73 341.570183 847.73 332.390183 837.73 321.450183L837.73 422.440183zM837.73 264.940183C845.23 279.650183 861.73 288.400183 879.73 286.500183 913.23 282.960183 933.23 253.850183 933.23 218.350183 933.23 182.350183 913.23 157.460183 879.73 161.000183 861.23 163.000183 845.23 175.650183 837.73 191.440183L837.73 264.940183zM469.82 155.310183L469.82 283.950183C469.82 299.330183 466.72 311.130183 460.6 319.020183 454.99 326.270183 446.71 330.380183 435.31 331.580183 423.91 332.780183 415.63 330.430183 410.02 324.360183 403.9 317.760183 400.8 306.620183 400.8 291.240183L400.8 162.600183 340.51 168.950183 340.51 297.620183C340.51 313.000183 337.41 324.790183 331.3 332.680183 325.68 339.930183 317.41 344.040183 306 345.250183 294.59 346.460183 286.33 344.090183 280.71 338.030183 274.6 331.430183 271.5 320.290183 271.5 304.910183L271.5 176.270183 211.15 182.650183 211.15 315.650183C211.15 345.500183 220.26 369.120183 237.49 383.950183 254.04 398.190183 277.73 404.140183 306 401.150183 332.25 398.380183 354.5 388.790183 370.75 373.360183 387.03 385.360183 409.23 390.250183 435.36 387.480183 463.76 384.480183 487.5 373.480183 504 355.780183 521.15 337.360183 530.21 311.780183 530.21 281.940183L530.21 148.950183 469.82 155.310183zM650.38 364.800183C683.53 361.300183 706.1 350.460183 722.65 332.720183 739.88 314.250183 748.99 288.720183 748.99 258.860183L748.99 125.860183 688.64 132.230183 688.64 260.830183C688.64 276.210183 685.54 288.010183 679.43 295.900183 673.81 303.150183 665.93 308.480183 650.43 310.130183 634.93 311.780183 626.99 308.130183 621.37 302.040183 615.26 295.440183 612.16 284.290183 612.16 268.920183L612.16 140.280183 551.81 146.650183 551.81 279.650183C551.81 309.510183 560.92 333.120183 578.15 347.960183 594.65 362.240183 617.22 368.300183 650.38 364.800183z"/>
    <path fill="#FE5B6A" d="M530.6,95.0601825 C530.6,112.920183 515.49,127.570183 497.18,127.570183 C479.256458,127.498894 464.745774,112.983746 464.68,95.0601825 C464.68,76.3001825 479.33,61.6501825 497.18,61.6501825 C506.050761,61.6208482 514.566805,65.1310785 520.840353,71.4027494 C527.113901,77.6744203 530.62668,86.1894131 530.6,95.0601825 Z"/>
    <path fill="#60DDCD" d="M614.89,33.4101825 C614.89,51.2701825 599.79,65.9201825 581.48,65.9201825 C563.55419,65.8543395 549.040328,51.3360121 548.98,33.4101825 C548.98,14.6501825 563.62,0.000182547141 581.48,0.000182547141 C590.349848,-0.0291659638 598.864874,3.48138079 605.136838,9.75334445 C611.408802,16.0253081 614.919349,24.540335 614.89,33.4101825 L614.89,33.4101825 Z"/>
  </g>
</svg>
